<mxfile host="app.diagrams.net" modified="2023-12-21T08:34:23.776Z" agent="Mozilla/5.0 (Windows NT 10.0; Win64; x64) AppleWebKit/537.36 (KHTML, like Gecko) Chrome/120.0.0.0 Safari/537.36" version="22.1.11" etag="j6V3JvZOpMsfAo_08HM5" type="github">
  <diagram name="ページ1" id="xm18Zlq5yV-mgP2RJiYh">
    <mxGraphModel>
      <root>
        <mxCell id="0" />
        <mxCell id="1" parent="0" />
      </root>
    </mxGraphModel>
  </diagram>
</mxfile>
